<svg width="281" height="69" viewBox="0 0 281 69" fill="none" xmlns="http://www.w3.org/2000/svg">
<path d="M-0.0013333 27.9569H6.46622V17.6373C6.46622 13.8329 7.27467 10.6625 8.89156 8.12622C10.5084 5.58993 12.6009 3.67185 15.1689 2.372C17.7369 1.07215 20.4 0.422221 23.1582 0.422221C26.5822 0.422221 29.1819 0.881925 30.9573 1.80133C32.7644 2.72074 33.9058 3.40237 34.3813 3.84622L28.8649 14.4511C28.7064 14.1975 28.3101 13.8329 27.676 13.3573C27.0419 12.8818 26.2018 12.644 25.1556 12.644C24.4898 12.644 23.824 12.8184 23.1582 13.1671C22.4924 13.5159 21.9376 14.1341 21.4938 15.0218C21.0816 15.9095 20.8756 17.2093 20.8756 18.9213V27.9569H30.5293V39.8458H20.8756V67H6.46622V39.8458H-0.0013333V27.9569ZM37.0444 67V27.9569H51.5013V67H37.0444ZM44.4631 19.92C42.1804 19.92 40.2465 19.1274 38.6613 17.5422C37.0761 15.9253 36.2836 14.0073 36.2836 11.788C36.2836 9.56874 37.0761 7.65067 38.6613 6.03378C40.2782 4.38518 42.2121 3.56089 44.4631 3.56089C45.9532 3.56089 47.3164 3.94133 48.5529 4.70222C49.7893 5.43141 50.788 6.41422 51.5489 7.65067C52.3098 8.88711 52.6902 10.2662 52.6902 11.788C52.6902 14.0073 51.8818 15.9253 50.2649 17.5422C48.648 19.1274 46.7141 19.92 44.4631 19.92ZM88.3792 26.8156C91.1057 26.8156 93.7688 27.3704 96.3685 28.48C98.9682 29.5896 101.108 31.3492 102.789 33.7587C104.469 36.1364 105.309 39.2751 105.309 43.1747V67H90.8045V45.5524C90.8045 42.7625 90.1387 40.6701 88.8072 39.2751C87.4756 37.8484 85.7319 37.1351 83.5761 37.1351C82.1494 37.1351 80.802 37.5156 79.5338 38.2764C78.2974 39.0056 77.2829 40.0519 76.4903 41.4151C75.7294 42.7467 75.349 44.2843 75.349 46.028V67H60.8921V27.9569H75.349V33.7111C75.7294 32.6649 76.522 31.6187 77.7267 30.5724C78.9632 29.4945 80.5008 28.6068 82.3396 27.9093C84.2101 27.1801 86.2233 26.8156 88.3792 26.8156ZM110.381 27.9569H117.039V11.9307H131.353V27.9569H140.103V39.8458H131.353V50.736C131.353 52.3529 131.591 53.6686 132.066 54.6831C132.542 55.6659 133.414 56.1573 134.682 56.1573C135.538 56.1573 136.267 55.9671 136.869 55.5867C137.472 55.2062 137.836 54.9526 137.963 54.8258L142.909 65.0978C142.687 65.288 141.99 65.6367 140.817 66.144C139.675 66.6513 138.217 67.111 136.441 67.5231C134.666 67.9353 132.685 68.1413 130.497 68.1413C126.597 68.1413 123.38 67.0476 120.843 64.86C118.307 62.6407 117.039 59.2326 117.039 54.6356V39.8458H110.381V27.9569ZM159.77 50.5458C159.866 51.9407 160.309 53.1772 161.102 54.2551C161.895 55.333 162.988 56.189 164.383 56.8231C165.81 57.4255 167.49 57.7267 169.424 57.7267C171.263 57.7267 172.912 57.5364 174.37 57.156C175.86 56.7756 177.144 56.3 178.222 55.7293C179.332 55.1587 180.188 54.5721 180.79 53.9698L186.402 62.9102C185.609 63.7662 184.483 64.6064 183.025 65.4307C181.598 66.2233 179.712 66.8732 177.366 67.3804C175.02 67.8877 172.056 68.1413 168.473 68.1413C164.161 68.1413 160.325 67.3329 156.965 65.716C153.604 64.0991 150.957 61.7213 149.023 58.5827C147.089 55.444 146.122 51.6079 146.122 47.0742C146.122 43.2698 146.946 39.8458 148.595 36.8022C150.275 33.727 152.701 31.3016 155.871 29.5262C159.041 27.7191 162.862 26.8156 167.332 26.8156C171.58 26.8156 175.258 27.5923 178.365 29.1458C181.503 30.6993 183.913 33.0136 185.593 36.0889C187.305 39.1324 188.161 42.9369 188.161 47.5022C188.161 47.7559 188.145 48.2631 188.114 49.024C188.114 49.7849 188.082 50.2921 188.018 50.5458H159.77ZM174.56 42.9844C174.529 41.9699 174.259 40.9713 173.752 39.9884C173.245 38.9739 172.484 38.1496 171.469 37.5156C170.455 36.8498 169.155 36.5169 167.57 36.5169C165.984 36.5169 164.637 36.8339 163.527 37.468C162.449 38.0704 161.625 38.863 161.054 39.8458C160.484 40.8286 160.167 41.8748 160.103 42.9844H174.56ZM216.794 56.7756C218.601 56.7756 220.091 56.4744 221.264 55.872C222.437 55.2379 223.23 54.7307 223.642 54.3502L230.252 64.1467C229.745 64.5588 228.873 65.0978 227.637 65.7636C226.4 66.3976 224.847 66.9524 222.976 67.428C221.137 67.9036 219.029 68.1413 216.651 68.1413C212.181 68.1413 208.25 67.3012 204.858 65.6209C201.465 63.9089 198.818 61.4994 196.916 58.3924C195.045 55.2855 194.11 51.6396 194.11 47.4547C194.11 43.2381 195.045 39.5921 196.916 36.5169C198.818 33.4416 201.465 31.0639 204.858 29.3836C208.25 27.6716 212.181 26.8156 216.651 26.8156C218.997 26.8156 221.09 27.0692 222.929 27.5764C224.799 28.052 226.369 28.6068 227.637 29.2409C228.905 29.8433 229.793 30.3664 230.3 30.8102L223.547 40.7018C223.325 40.4799 222.913 40.1628 222.31 39.7507C221.74 39.3385 220.995 38.9739 220.075 38.6569C219.156 38.3399 218.062 38.1813 216.794 38.1813C215.241 38.1813 213.782 38.5776 212.419 39.3702C211.087 40.1628 210.009 41.2566 209.185 42.6516C208.361 44.0465 207.949 45.6476 207.949 47.4547C207.949 49.2618 208.361 50.8787 209.185 52.3053C210.009 53.7003 211.087 54.7941 212.419 55.5867C213.782 56.3793 215.241 56.7756 216.794 56.7756ZM263.33 26.8156C266.057 26.8156 268.72 27.3704 271.319 28.48C273.919 29.5896 276.059 31.3492 277.739 33.7587C279.42 36.1364 280.26 39.2751 280.26 43.1747V67H265.803V45.5524C265.803 42.7625 265.169 40.6701 263.901 39.2751C262.664 37.8484 260.968 37.1351 258.812 37.1351C257.386 37.1351 256.022 37.5156 254.723 38.2764C253.423 39.0056 252.361 40.0519 251.536 41.4151C250.744 42.7467 250.347 44.2843 250.347 46.028V67H235.843V1.56356H250.347V33.7111C250.696 32.6649 251.473 31.6187 252.678 30.5724C253.914 29.4945 255.452 28.6068 257.291 27.9093C259.161 27.1801 261.174 26.8156 263.33 26.8156Z" fill="white"/>
</svg>
